<svg id="Layer_1" data-name="Layer 1" xmlns="http://www.w3.org/2000/svg" viewBox="0 0 869.23 670.11"><defs><style>.cls-1{fill:none;}.cls-1,.cls-3,.cls-4{stroke:#05574f;stroke-linejoin:round;stroke-width:8.76px;}.cls-2{fill:#05574f;}.cls-3,.cls-4{fill:#fff;}.cls-4{stroke-linecap:round;}</style></defs><title>iconsButter</title><rect class="cls-1" x="600.23" y="463.71" width="32.34" height="71.78" rx="12.54"/><path class="cls-2" d="M147.83,645.41V393.29c0-11.52,0-23,0-34.56,0-34,2.9-77.09,36.16-95.93,11.07-6.27,22.9-7.67,35.31-7.67h71.2c12.12,0,23.68,1.11,34.64,7a59.52,59.52,0,0,1,22,20.31c3.57,5.58,6,11.78,8.59,17.83,3.66,8.47,4.47,17.39,5.43,26.59a271.07,271.07,0,0,1,1.37,27.47q0,33.23,0,66.45v6.84c0,5.64,8.76,5.65,8.76,0V362.92c0-14.6-.36-29.12-2.27-43.64-.74-5.63-1.13-11.92-3.06-17.26-.86-2.4-2-4.73-3.06-7.07-2.68-6.22-5.2-12.48-9-18.14a68.85,68.85,0,0,0-50.2-30.1c-8.38-.87-17-.34-25.44-.34-21.68,0-43.37-.2-65,0a68.9,68.9,0,0,0-50.9,22.79c-5.63,6.37-9.59,13.57-12.94,21.32-1,2.27-2.07,4.52-3,6.83-2.23,5.86-3,12.76-4,18.94-3.15,19.68-3.4,39.31-3.4,59.14V523.26c0,40-.52,80.13,0,120.17v2c0,5.64,8.76,5.65,8.76,0Z"/><path class="cls-1" d="M232,566.57h45.61A20.4,20.4,0,0,1,298,587v58.44a0,0,0,0,1,0,0H211.55a0,0,0,0,1,0,0V587A20.4,20.4,0,0,1,232,566.57Z"/><rect class="cls-1" x="173.83" y="304.09" width="32.34" height="71.78" rx="12.54"/><rect class="cls-1" x="238.59" y="304.09" width="32.34" height="71.78" rx="12.54"/><rect class="cls-1" x="303.35" y="304.09" width="32.34" height="71.78" rx="12.54"/><rect class="cls-1" x="173.83" y="402.21" width="32.34" height="71.78" rx="12.54"/><rect class="cls-1" x="238.59" y="402.21" width="32.34" height="71.78" rx="12.54"/><path class="cls-1" d="M326.07,473.64a12.28,12.28,0,0,1-2.92.35H315.9a12.55,12.55,0,0,1-12.55-12.55V414.75a12.55,12.55,0,0,1,12.55-12.54h7.25a12.55,12.55,0,0,1,12.54,12.54V446.5"/><path class="cls-1" d="M433.53,427.61a12.63,12.63,0,0,1-.17-2.06V378.86a12.55,12.55,0,0,1,12.55-12.54h7.25a12.55,12.55,0,0,1,12.54,12.54v46.69"/><rect class="cls-1" x="600.23" y="366.32" width="32.34" height="71.78" rx="12.54"/><line class="cls-3" x1="254.76" y1="566.57" x2="254.76" y2="645.41"/><path class="cls-2" d="M417.17,427.72V184.36c0-14.59-.31-28.71,4.59-42.79,10.05-28.88,37-50.37,67.42-53.63,7-.75,14.1-.45,21.13-.39l32.11.23c20.09.15,40.39-1.17,59.14,7.57a81.94,81.94,0,0,1,47.19,72.32c.27,15.4,0,30.84,0,46.24v431.5l4.38-4.38H436.88c-5.63,0-5.64,8.76,0,8.76H653.14a4.44,4.44,0,0,0,4.38-4.38V229.27c0-19.7,0-39.4,0-59.1A91.44,91.44,0,0,0,635,109.57c-17.7-20.14-42.93-30.19-69.43-30.38l-58.13-.43c-8.34-.06-16.56-.09-24.84,1.32a89.52,89.52,0,0,0-40.81,18.64c-21.29,17.1-33.29,43.28-33.37,70.45,0,12.38,0,24.75,0,37.12V427.72c0,5.64,8.76,5.65,8.76,0Z"/><path class="cls-2" d="M325.69,649.79H588.62a4.44,4.44,0,0,0,4.38-4.38V486.1c0-5.2.25-10.52-.32-15.7A53,53,0,0,0,561,427.53c-8.5-3.64-17.24-4.27-26.3-4.27H390.64c-5.46,0-10.92-.06-16.38,0A53.38,53.38,0,0,0,332.17,444c-12.82,16.73-10.86,36.75-10.86,56.43v145c0,5.64,8.76,5.65,8.76,0V520.76c0-14.93-.19-29.87,0-44.8.22-18.31,11.59-35.2,29.05-41.38C366.34,432,373.54,432,381,432h141.7c5.7,0,11.41,0,17.12,0,15.75.14,30.38,8,38.41,21.75,8.56,14.61,6,34,6,50.34v141.3l4.38-4.38H325.69C320.05,641,320,649.79,325.69,649.79Z"/><path class="cls-1" d="M518.65,581.55h17.24a13,13,0,0,1,13,13v50.88a0,0,0,0,1,0,0H505.67a0,0,0,0,1,0,0V594.53A13,13,0,0,1,518.65,581.55Z"/><line class="cls-1" x1="390.57" y1="645.41" x2="390.57" y2="584.66"/><polyline class="cls-4" points="54.28 645.41 143.45 645.41 741.1 645.41"/><rect class="cls-1" x="505.67" y="474.83" width="43.21" height="43.21" rx="9.7"/><rect class="cls-1" x="364.41" y="474.83" width="43.21" height="43.21" rx="9.7"/><rect class="cls-1" x="435.61" y="474.83" width="43.21" height="43.21" rx="9.7"/><path class="cls-2" d="M386.25,580.34c-5.59.89-16.09-1.71-17.1-8.24-.82-5.37-1.1-12.71,1.89-17.47,2.85-4.55,8.88-6,13.85-4.63,3.23.88,6.06,2.85,9.34,3.66a29.52,29.52,0,0,0,9.38.32c2.62-.2,6-.77,8.47.35,3.14,1.41,3.37,4.91,3.43,7.94.06,3.23-1.07,5.57-3.07,8.12-3.16,4-6.53,3.32-11.05,4.41-5.25,1.26-9.92,4.2-15.14,5.54-5.45,1.41-3.14,9.86,2.33,8.45,5.81-1.5,11-5.09,17-5.85,5.4-.68,9.39-2,13-6.35,5.95-7.11,8.6-18.63,2.12-26.44-4.3-5.18-10.93-5.4-17.14-4.93a23.51,23.51,0,0,1-12.46-2.17,25.21,25.21,0,0,0-9-2.28c-13.66-.6-21.68,10.28-22.05,23-.21,7.11,0,14.75,6.07,19.46a29.93,29.93,0,0,0,22.46,5.55C394.13,587.91,391.78,579.46,386.25,580.34Z"/><rect class="cls-1" x="433.36" y="167.85" width="32.34" height="71.78" rx="12.54"/><rect class="cls-1" x="488.7" y="167.85" width="32.34" height="71.78" rx="12.54"/><rect class="cls-1" x="544.47" y="167.85" width="32.34" height="71.78" rx="12.54"/><rect class="cls-1" x="600.23" y="167.85" width="32.34" height="71.78" rx="12.54"/><rect class="cls-1" x="433.36" y="268.93" width="32.34" height="71.78" rx="12.54"/><rect class="cls-1" x="488.7" y="268.93" width="32.34" height="71.78" rx="12.54"/><path class="cls-1" d="M489.68,428.36a12.58,12.58,0,0,1-1-4.88V376.79a12.53,12.53,0,0,1,12.54-12.54h7.25A12.53,12.53,0,0,1,521,376.79v46.69a12.55,12.55,0,0,1-.71,4.17"/><rect class="cls-1" x="544.47" y="268.93" width="32.34" height="71.78" rx="12.54"/><path class="cls-1" d="M545.17,427.65a12.8,12.8,0,0,1-.7-4.17V376.79A12.53,12.53,0,0,1,557,364.25h7.25a12.53,12.53,0,0,1,12.54,12.54v46.69a12.54,12.54,0,0,1-9.38,12.14"/><rect class="cls-1" x="600.23" y="268.93" width="32.34" height="71.78" rx="12.54"/><path class="cls-2" d="M499,85.52c11.46-18.76,29.91-32.48,50.83-39a92.86,92.86,0,0,1,32.1-4.22c11.82.56,22.38,4.41,33.59,7.84,13.35,4.1,26.51,4.11,40.08,1,13.73-3.15,26.67-8.83,40.21-12.61,12.66-3.54,26.59-5.86,39.4-1.67,12.48,4.08,21.64,14.68,32.32,21.87A134.85,134.85,0,0,0,801.05,75c11.11,3.63,22.63,4.6,33.89,7.46,8.8,2.23,20.55,7.64,17.44,18.89-2.53,9.15-13.54,15.73-22.08,18.22-9.63,2.8-20.5,2.63-30.42,3.08-16.84.75-33.7,1-50.55,1.06-35.58.22-71.17-.57-106.74-.19-5.64.06-5.65,8.82,0,8.76,33.75-.36,67.51.37,101.26.22,18-.08,36.08-.26,54.1-1,11.24-.47,23.58-.32,34.51-3.43,17.72-5,40.35-26.47,23.19-44.68-6.95-7.38-18-9.6-27.53-11.23-13.07-2.24-25.71-5.12-37.81-10.69C777.12,55.4,766.36,46.81,755,38a55.87,55.87,0,0,0-36.64-12.12c-29.63.86-55.94,20.74-85.72,18.78-15-1-28.7-8.73-43.68-10.56a98.88,98.88,0,0,0-37.35,2.76c-24.73,6.59-46.74,22.3-60.12,44.21-2.95,4.83,4.62,9.23,7.56,4.42Z"/><path class="cls-2" d="M154.49,280c-12.21-3.78-24.58-3.94-35.62,3.12-5.13,3.28-9.91,6.92-15.33,9.74a104.5,104.5,0,0,1-18.79,7.43C72.3,304,59.4,306,46.53,307.58c-10.6,1.33-24.51.95-32.86,8.75-5.82,5.43-9.77,17.81-1.37,23,3.26,2,7.88,2.15,11.56,2.57,16.49,1.85,33.24,2,49.82,2.26,21.83.34,43.69.29,65.5-.59,5.62-.23,5.65-9,0-8.76-33.65,1.37-67.6,1.35-101.24-.57-5.49-.31-11-.6-16.49-1.41A16.48,16.48,0,0,1,17.1,332c-1.05-.49.07.54-.35-.26-1.13-2.16-.14-4.83,1.05-6.76,2.71-4.36,8.06-5.73,12.79-6.58,5.82-1,11.75-1.5,17.61-2.25a285.8,285.8,0,0,0,32.49-5.63c12-3,23.94-7.42,34.4-14.18,5.22-3.37,10-7.67,16.12-9.39,6.92-2,14.25-.53,21,1.55,5.39,1.67,7.7-6.78,2.32-8.45Z"/></svg>