<?xml version="1.0" encoding="UTF-8"?>
<svg width="768px" height="4678px" viewBox="0 0 768 4678" version="1.1" xmlns="http://www.w3.org/2000/svg" xmlns:xlink="http://www.w3.org/1999/xlink">
    <!-- Generator: Sketch 54.1 (76490) - https://sketchapp.com -->
    <title>City Tabletlinework</title>
    <desc>Created with Sketch.</desc>
    <g id="City-Tablet" stroke="none" stroke-width="1" fill="none" fill-rule="evenodd">
        <rect fill="#FFFFFF" x="0" y="0" width="768" height="4678"></rect>
        <path d="M690,3185 C768.48381,3496.75978 796.752605,3708.69556 774.806387,3820.80736 C752.860169,3932.91916 724.591373,4064.3167 690,4215" id="Path-5" stroke="#935841" stroke-dasharray="15" transform="translate(736.000000, 3700.000000) scale(-1, 1) translate(-736.000000, -3700.000000) "></path>
        <path d="M98.7214594,4609 C116.663428,4538.79063 -135.430126,4092.68748 -37.2022681,3945.19919 C86.0330138,3760.16247 139.901403,3575.42941 124.402901,3391" id="Line-2-Copy-9" stroke="#925842" stroke-linecap="square" stroke-dasharray="15" transform="translate(33.500000, 4000.000000) scale(-1, 1) translate(-33.500000, -4000.000000) "></path>
        <path d="M405.961963,1251.79011 C335.04395,1307.19734 -102.474938,1624.94827 -159.080697,1759.76458 C-183.61929,1818.20744 -281.368341,1777.28926 -350.399632,1824.99437 C-420.447254,1873.40184 -508.167824,1915.936 -613.561341,1952.59685 C-465.133795,1809.98769 -377.214308,1729.21696 -349.802878,1710.28468 C19.0126548,1455.55439 22.2738143,1242.98633 295.575851,1110.50233 C568.877887,978.018332 470.460328,1201.39847 405.961963,1251.79011 Z" id="Line-2-Copy-10" stroke="#925842" stroke-linecap="square" stroke-dasharray="15" transform="translate(-68.038621, 1510.846466) rotate(-52.000000) translate(68.038621, -1510.846466) "></path>
        <path d="M1055.67929,66.6950393 C1036.14461,160.725666 1009.36924,274.115277 967.186075,357.22444 C894.194976,501.031316 788.026048,563.406657 648.679292,544.350464" id="Line-2-Copy-9" stroke="#925842" stroke-linecap="square" stroke-dasharray="15" transform="translate(852.179292, 307.195039) rotate(124.000000) translate(-852.179292, -307.195039) "></path>
    </g>
</svg>