<?xml version="1.0" encoding="UTF-8"?>
<svg width="320px" height="8039px" viewBox="0 0 320 8039" version="1.1" xmlns="http://www.w3.org/2000/svg" xmlns:xlink="http://www.w3.org/1999/xlink">
    <!-- Generator: Sketch 54.1 (76490) - https://sketchapp.com -->
    <title>City Mobilelinework</title>
    <desc>Created with Sketch.</desc>
    <g id="City-Mobile" stroke="none" stroke-width="1" fill="none" fill-rule="evenodd">
        <rect fill="#FFFFFF" x="0" y="0" width="320" height="8039"></rect>
        <path d="M71.7214594,7841 C89.663428,7752.69067 -162.430126,7191.58228 -64.2022681,7006.07156 C59.0330138,6773.33244 112.901403,6540.97525 97.402901,6309" id="Line-2-Copy-10" stroke="#925842" stroke-linecap="square" stroke-dasharray="15" transform="translate(6.500000, 7075.000000) scale(-1, 1) translate(-6.500000, -7075.000000) "></path>
        <path d="M233,5884 C311.48381,6259.32245 339.752605,6514.46844 317.806387,6649.43799 C295.860169,6784.40753 267.591373,6942.59487 233,7124" id="Path-5-Copy" stroke="#935841" stroke-dasharray="15" transform="translate(279.000000, 6504.000000) scale(-1, 1) translate(-279.000000, -6504.000000) "></path>
        <path d="M394,518 C357.775471,481.024737 315.065786,435.002346 290.578569,391.215887 C248.207426,315.450549 260.619184,238.71192 327.813843,161" id="Line-2-Copy-9" stroke="#925842" stroke-linecap="square" stroke-dasharray="15"></path>
    </g>
</svg>