<?xml version="1.0" encoding="utf-8"?>
<!-- Generator: Adobe Illustrator 22.0.1, SVG Export Plug-In . SVG Version: 6.00 Build 0)  -->
<svg version="1.1" id="Layer_1" xmlns="http://www.w3.org/2000/svg" xmlns:xlink="http://www.w3.org/1999/xlink" x="0px" y="0px"
	 viewBox="0 0 1024 4481" style="enable-background:new 0 0 1024 4481;" xml:space="preserve">
<style type="text/css">
	.st0{fill:#FFFFFF;}
	.st1{fill:none;stroke:#935841;stroke-width:0.899;stroke-dasharray:13.4843;}
	.st2{fill:none;stroke:#925842;stroke-width:0.899;stroke-linecap:square;stroke-dasharray:13.4843;}
</style>
<title>City Desktoplinework</title>
<desc>Created with Sketch.</desc>
<g id="City-Desktop">
	<rect y="-33" class="st0" width="1024" height="3621.2"/>
	<path id="Path-5-Copy" class="st1" d="M1036,2187.7c-78.5,251.9-106.8,423.2-84.8,513.8c21.9,90.6,50.2,196.8,84.8,318.6"/>
	<path id="Line-2-Copy-10" class="st2" d="M-0.1,3476.6c-28.8-56.8,90.4-148.6,68.4-437.4c-25.4-333-49.8-592-73.3-777.2"/>
	<path id="Line-2-Copy-10_1_" class="st2" d="M18.5,509.1c0,72.7-19,509.4,52.4,612.6c30.9,44.7-61.5,86.6-66.4,154.3
		c-5,68.7-25.5,145.7-61.5,231.1c-21-165.5-30.5-261.6-28.6-288.5c26.3-361.6-139.2-469.4-75.3-709.4S18.5,442.9,18.5,509.1z"/>
	<path id="Line-2-Copy-9" class="st2" d="M1112.1,328.3c-67-55.6-146.1-124.8-191.4-190.6c-74.3-107.9,7.7-235.8,98.4-310"/>
</g>
</svg>
