<?xml version="1.0" encoding="UTF-8"?>
<svg width="320px" height="3115px" viewBox="0 0 320 3115" version="1.1" xmlns="http://www.w3.org/2000/svg" xmlns:xlink="http://www.w3.org/1999/xlink">
    <!-- Generator: Sketch 53.2 (72643) - https://sketchapp.com -->
    <title>Homepage Mobilelinework</title>
    <desc>Created with Sketch.</desc>
    <g id="Homepage-Mobile" stroke="none" stroke-width="1" fill="none" fill-rule="evenodd">
        <rect fill="#FFFFFF" x="0" y="0" width="320" height="3115"></rect>
        <path d="M200,1381 C213.908067,1343.54043 237.351035,1309.96619 270.328906,1280.27729 C316.649604,1238.57628 377.539969,1215.15051 453,1210" id="Line-2" stroke="#925842" stroke-linecap="square" stroke-dasharray="15"></path>
        <path d="M127,1381 C146.482847,1334.95629 166.338022,1298.49151 186.565522,1271.60566 C214.908695,1233.93268 293.972087,1180.62 367.949733,1133.72668 C419.830149,1100.84047 451.513572,1050.26491 463,982" id="Line" stroke="#925842" stroke-linecap="square" stroke-dasharray="15"></path>
        <path d="M185.828084,2249.19233 C199.7128,2211.67161 223.116407,2178.04257 256.038908,2148.30521 C302.281834,2106.53613 357.974887,2081.41664 423.118066,2072.94674" id="Line-2-Copy-6" stroke="#925842" stroke-linecap="square" stroke-dasharray="15" transform="translate(304.473075, 2161.069532) rotate(-108.000000) translate(-304.473075, -2161.069532) "></path>
        <path d="M0,2711 C7.99581453,2696.35302 33.3158939,2684.0528 75.9602381,2674.09932 C121.245037,2663.52955 254.074034,2699.28422 298.843568,2667.05907 C344.281189,2634.35302 367,2618 367,2618" id="Line-3" stroke="#925842" stroke-linecap="square" stroke-dasharray="15"></path>
    </g>
</svg>