<?xml version="1.0" encoding="utf-8"?>
<!-- Generator: Adobe Illustrator 22.0.1, SVG Export Plug-In . SVG Version: 6.00 Build 0)  -->
<svg version="1.1" id="Layer_1" xmlns="http://www.w3.org/2000/svg" xmlns:xlink="http://www.w3.org/1999/xlink" x="0px" y="0px"
	 viewBox="0 0 1024 345.9" style="enable-background:new 0 0 1024 345.9;" xml:space="preserve">
<style type="text/css">
	.st0{fill:none;stroke:#925842;stroke-dasharray:15;}
</style>
<path id="Path-2" class="st0" d="M-42,1606.6c95,25,158.3,37.5,190,37.5c47.6,0,101.8,0,101.8-37.5c0-37.5-61.8-42.3-74.8-21.8
	c-8.8,14-7.2,47.4,28.4,70.3c16.6,10.7,41.9,16.2,74.6,21.5c103,16.7,165.6-33.4,270.8-16.7c105.2,16.7,173.5,98.3,250.2,126.3
	c51.1,18.7,120.8,24,209,16"/>
<path id="Path-2_1_" class="st0" d="M0,67.6c95,25,158.3,37.5,190,37.5c47.6,0,101.8,0,101.8-37.5c0-37.5-61.8-42.3-74.8-21.8
	c-8.8,14-7.2,47.4,28.4,70.3c16.6,10.7,41.9,16.2,74.6,21.5c103,16.7,165.6-33.4,270.8-16.7C696,137.6,764.3,219.1,841,247.2
	c51.1,18.7,120.8,24,209,16"/>
</svg>
