<?xml version="1.0" encoding="UTF-8"?>
<svg width="1024px" height="2948px" viewBox="0 0 1024 2948" version="1.1" xmlns="http://www.w3.org/2000/svg" xmlns:xlink="http://www.w3.org/1999/xlink">
    <!-- Generator: Sketch 54.1 (76490) - https://sketchapp.com -->
    <title>spreadUIdesktoplinework</title>
    <desc>Created with Sketch.</desc>
    <g id="spreadUIdesktop" stroke="none" stroke-width="1" fill="none" fill-rule="evenodd">
        <rect fill="#FFFFFF" x="0" y="0" width="1024" height="2948"></rect>
        <path d="M1254.85158,277.086687 C1235.31689,371.117313 1208.54152,484.506924 1166.35836,567.616087 C1097.19032,703.890785 920.133204,724.366717 793.353612,700.537924" id="Line-2-Copy-9" stroke="#925842" stroke-linecap="square" stroke-dasharray="15" transform="translate(1024.102594, 493.083412) rotate(124.000000) translate(-1024.102594, -493.083412) "></path>
        <path d="M-32,2612.8071 C62.9585069,2637.81923 126.291843,2650.32529 158.000008,2650.32529 C205.562256,2650.32529 259.778218,2650.32529 259.778218,2612.8071 C259.778218,2575.28891 197.970448,2570.5135 185.00001,2591.00771 C176.155723,2604.98231 177.77181,2638.42976 213.369667,2661.28881 C229.977243,2671.95332 255.233685,2677.48885 288.000014,2682.79634 C391.000019,2699.48026 453.602681,2649.42849 558.801356,2666.11241 C664.000031,2682.79634 732.299567,2764.3806 809.000037,2792.39418 C860.133684,2811.0699 929.800338,2816.40331 1018,2808.39441" id="Path-2" stroke="#925842" stroke-dasharray="15"></path>
    </g>
</svg>