<?xml version="1.0" encoding="UTF-8"?>
<svg width="768px" height="2633px" viewBox="0 0 768 2633" version="1.1" xmlns="http://www.w3.org/2000/svg" xmlns:xlink="http://www.w3.org/1999/xlink">
    <!-- Generator: Sketch 54.1 (76490) - https://sketchapp.com -->
    <title>spreadUItabletlinework</title>
    <desc>Created with Sketch.</desc>
    <g id="spreadUItablet" stroke="none" stroke-width="1" fill="none" fill-rule="evenodd">
        <rect fill="#FFFFFF" x="0" y="0" width="768" height="2633"></rect>
        <path d="M1059.85158,241.086687 C1040.31689,335.117313 1013.54152,448.506924 971.358359,531.616087 C902.190317,667.890785 725.133204,688.366717 598.353612,664.537924" id="Line-2-Copy-9" stroke="#925842" stroke-linecap="square" stroke-dasharray="15" transform="translate(829.102594, 457.083412) rotate(124.000000) translate(-829.102594, -457.083412) "></path>
        <path d="M-166,2216.8071 C-71.0414931,2241.81923 -7.70815699,2254.32529 24.0000084,2254.32529 C71.5622564,2254.32529 125.778218,2254.32529 125.778218,2216.8071 C125.778218,2179.28891 63.9704476,2174.5135 51.0000096,2195.00771 C42.1557233,2208.98231 43.7718098,2242.42976 79.3696671,2265.28881 C95.9772433,2275.95332 121.233685,2281.48885 154.000014,2286.79634 C257.000019,2303.48026 319.602681,2253.42849 424.801356,2270.11241 C530.000031,2286.79634 598.299567,2368.3806 675.000037,2396.39418 C726.133684,2415.0699 795.800338,2420.40331 884,2412.39441" id="Path-2" stroke="#925842" stroke-dasharray="15"></path>
    </g>
</svg>