<svg id="Layer_1" data-name="Layer 1" xmlns="http://www.w3.org/2000/svg" viewBox="0 0 412.45 165.25"><defs><style>.cls-1{opacity:0.75;}.cls-2{fill:#f2d5c7;}.cls-3{fill:#05574f;}</style></defs><title>full-logo</title><g class="cls-1"><path class="cls-2" d="M77.53,90.51c9.3,1.25,18.55,2.94,27.93,2.85,20.71-.2,40.19-9,60.51-12.82,34.66-6.55,69.68,1.3,104.23,4.16,34.86,2.89,72.26-9.69,106,1.21,13.47,4.36,25.79,14.47,28.19,27.81,3,16.89-10.56,32.95-26.45,41.12-29.55,15.18-65.52,11-98.4,4.87-21.42-4-24.35-7.58-46.3-7.58-18,0-35.48,3.82-53.31,4.9a124.72,124.72,0,0,1-52.68-8.17c-6.89-2.68-13.54-6-20.69-8-15.09-4.16-30.27,2.82-45.72,1.53-24.38-2-55.64-27.93-24.66-47.08,9.9-6.12,22.46-6.79,34.19-5.68C72.75,89.89,75.15,90.18,77.53,90.51Z"/></g><path class="cls-3" d="M26.08,120.86c-4.1-1.18-6.7-1.78-7.77-1.78a11.08,11.08,0,0,0-5.84,2.11,4.34,4.34,0,0,1-2.26,1.13A3.5,3.5,0,0,1,8,121.75a1.83,1.83,0,0,1-.73-1.53,44.89,44.89,0,0,1,.89-5.76A48.37,48.37,0,0,0,8.91,104L8.26,31.93a19,19,0,0,0-1.38-7.86,6.7,6.7,0,0,0-4.94-3.81C.65,20.05,0,19.18,0,17.67a2.34,2.34,0,0,1,.49-1.46,2.07,2.07,0,0,1,1.29-.81q7.12-1.29,24.3-7.94a7.42,7.42,0,0,1,2.27-.64c1.19,0,1.78.64,1.78,1.94a42.8,42.8,0,0,1-.4,4.37A47.78,47.78,0,0,0,29.32,19V53.63q0,4.54,1.46,4.54A44.41,44.41,0,0,1,41.23,52.9,31.78,31.78,0,0,1,51.52,51a27.51,27.51,0,0,1,15.22,4.38A30.79,30.79,0,0,1,77.52,67.48a36.85,36.85,0,0,1,4,17.1,40.55,40.55,0,0,1-4.95,20.17,34.3,34.3,0,0,1-13.93,13.68A42.74,42.74,0,0,1,42,123.29,65.35,65.35,0,0,1,26.08,120.86ZM55,108.47q3.81-8,3.81-19.68a45.37,45.37,0,0,0-4.22-19.93q-4.22-8.74-12.15-8.75a28.13,28.13,0,0,0-7.12,1,16.07,16.07,0,0,0-6,2.75V98.35a18.77,18.77,0,0,0,4.62,13,14.21,14.21,0,0,0,10.93,5.18Q51.2,116.49,55,108.47Z"/><path class="cls-3" d="M133,122.81a31.36,31.36,0,0,1,.49-5.19l.32-5a3,3,0,0,0-.32-1.78A36,36,0,0,1,122,119.89a30.49,30.49,0,0,1-14.18,3.57q-7.62,0-12.72-6.57T90,100.61V70.32a11.16,11.16,0,0,0-1.46-6.24,7.21,7.21,0,0,0-5-2.83,3.13,3.13,0,0,1-1.7-.89,3,3,0,0,1-.73-2.19c0-1.73.81-2.65,2.43-2.75A114.47,114.47,0,0,0,107,51.53l1.7-.41a8,8,0,0,1,1.7-.24,1.86,1.86,0,0,1,2.11,2.27,64.8,64.8,0,0,0-1.3,12.47V96.73c0,3.88.92,7,2.76,9.39a9,9,0,0,0,7.13,3.73q6.32,0,9.88-3.57a9.23,9.23,0,0,0,2.27-3.64,18.11,18.11,0,0,0,1-6.4V70.16a8.49,8.49,0,0,0-2.43-6.4,9.92,9.92,0,0,0-6.32-2.67,5.12,5.12,0,0,1-2.92-1,3.21,3.21,0,0,1-1-2.59,2.78,2.78,0,0,1,1.14-2.43,4.59,4.59,0,0,1,2.75-.81Q137.82,53.47,143,53a66.64,66.64,0,0,0,9.71-1.62c1.3-.33,2-.49,2.11-.49,1.62,0,2.43.65,2.43,1.94a11.43,11.43,0,0,1-.65,2.43c-.21,1.3-.46,3.19-.73,5.67a56.79,56.79,0,0,0-.4,5.67v37.59q0,6.15,2.92,6.15l4.53.17a3.07,3.07,0,0,1,2.27.81,2.84,2.84,0,0,1,.81,2.1,4.23,4.23,0,0,1-.57,2.43,2.86,2.86,0,0,1-2.18,1,85.37,85.37,0,0,0-24.79,6.48l-1.86.65a7.14,7.14,0,0,1-2.35.49C133.38,124.43,133,123.89,133,122.81Z"/><path class="cls-3" d="M266.85,112.6q0,1.14-3.64,3.81a39.37,39.37,0,0,1-9.15,4.78,31.19,31.19,0,0,1-11.18,2.1q-10.53,0-16-5.34t-5.43-15.39V65.3a2.25,2.25,0,0,0-1.13-2.11,3.62,3.62,0,0,0-.76-.32H201.1c-2.49,0-4.19.3-5.1.89a3.47,3.47,0,0,0-1.38,3.16V97.53q0,7.31,2.75,11a9,9,0,0,0,7.62,3.73,19.36,19.36,0,0,0,9.15-1.78l1.7-.81a2.47,2.47,0,0,1,1-.33,1.46,1.46,0,0,1,1.3.89,5,5,0,0,1,.49,2.35q0,1.14-3.65,3.81a39.37,39.37,0,0,1-9.15,4.78,31.19,31.19,0,0,1-11.18,2.1q-10.53,0-16-5.34t-5.42-15.39V65.3a2.24,2.24,0,0,0-1.14-2.11,9.63,9.63,0,0,0-3.89-.81h-2.1c-.65,0-1.24-.59-1.78-1.78a8.07,8.07,0,0,1-.81-3.4,1.66,1.66,0,0,1,1-1.62q8.1-2.92,23.65-16.53a9.43,9.43,0,0,1,1.13-.89,13.7,13.7,0,0,1,1.46-.89,3.3,3.3,0,0,1,1.46-.32,2.6,2.6,0,0,1,2.11.65,4.14,4.14,0,0,1,.32,2.59l-1,9.56v.64c0,1.84,1.29,2.76,3.89,2.76h20.25q7.35-4.24,18.61-14.1a9.43,9.43,0,0,1,1.13-.89,13.7,13.7,0,0,1,1.46-.89,3.3,3.3,0,0,1,1.46-.32,2.56,2.56,0,0,1,2.1.65,4.12,4.12,0,0,1,.33,2.59l-1,9.56v.64q0,2.76,3.88,2.76h19.28c.33,0,.65.38,1,1.13a5.31,5.31,0,0,1,.49,2.11,14.58,14.58,0,0,1-.65,4.45c-.43,1.35-.92,2-1.46,2H249.36c-2.49,0-4.19.3-5.1.89a3.47,3.47,0,0,0-1.38,3.16V97.53q0,7.31,2.75,11a9,9,0,0,0,7.62,3.73,19.36,19.36,0,0,0,9.15-1.78l1.7-.81a2.42,2.42,0,0,1,1-.33,1.47,1.47,0,0,1,1.3.89A5,5,0,0,1,266.85,112.6Z"/><path class="cls-3" d="M280.2,118.68A31.51,31.51,0,0,1,269.27,106a40.63,40.63,0,0,1-4-18.14A37.18,37.18,0,0,1,270,69.35,35.56,35.56,0,0,1,282.88,56,33.7,33.7,0,0,1,300.62,51,26.8,26.8,0,0,1,313.09,54a22.24,22.24,0,0,1,8.91,8.1,21,21,0,0,1,3.24,11.34A7.33,7.33,0,0,1,324,78.1a4.68,4.68,0,0,1-3.8,1.45h-32.4a4,4,0,0,0-3.32,1.3c-.71.87-1.06,2.32-1.06,4.37a22.23,22.23,0,0,0,6,15.8,19.73,19.73,0,0,0,15.06,6.4,20.89,20.89,0,0,0,8.43-1.7,39.69,39.69,0,0,0,8.1-4.94,4.93,4.93,0,0,1,2.26-1.3c1.08,0,1.62.7,1.62,2.11a11.76,11.76,0,0,1-1.29,4.86q-2.6,6.8-10.13,11.82a31.2,31.2,0,0,1-17.74,5A27.61,27.61,0,0,1,280.2,118.68Zm17.34-45.93q3.72,0,5.83-.16a18.37,18.37,0,0,0,3.73-.65,2.58,2.58,0,0,0,1.29-1.62,8.35,8.35,0,0,0,.49-2.92,9.3,9.3,0,0,0-3-7,10.34,10.34,0,0,0-7.37-2.84,12.44,12.44,0,0,0-9.07,4.13q-4.05,4.14-3.89,8.83a2,2,0,0,0,2.27,2.27Z"/><path class="cls-3" d="M326.13,120.94a1.88,1.88,0,0,1-.89-1.7,2.48,2.48,0,0,1,.89-2A7.4,7.4,0,0,1,329,116a11.46,11.46,0,0,0,4.78-2.43,5.23,5.23,0,0,0,1.22-3.72V72.59a12.71,12.71,0,0,0-1-5.75A5.93,5.93,0,0,0,330.1,64,2.76,2.76,0,0,1,328,61.09a2.5,2.5,0,0,1,1.95-2.76A97.29,97.29,0,0,0,341.36,55,107.13,107.13,0,0,0,352,50.72c1.62-1.19,2.86-1.78,3.72-1.78s1.46.59,1.46,1.78l-.48,12.8c0,1,.21,1.45.64,1.45A46,46,0,0,1,367,55c3.66-2.75,7.29-4.13,10.85-4.13s6.18.68,7.86,2a6.82,6.82,0,0,1,2.51,5.59,14.4,14.4,0,0,1-3,8.18q-3,4.31-6.4,4.3-2.1,0-6.32-2.27c-.43-.22-1.32-.62-2.67-1.22a8.81,8.81,0,0,0-3.32-.89q-10.37,0-10.37,15.39v26.41a5.79,5.79,0,0,0,1.94,4.7,18.38,18.38,0,0,0,6.65,2.91q3.56,1,3.56,3.24a2,2,0,0,1-.81,1.62,3,3,0,0,1-1.94.65q-5.19,0-10.37-.48c-4.32-.22-7.35-.33-9.07-.33s-4.6.11-8.27.33a86.12,86.12,0,0,1-9.39.48A4.3,4.3,0,0,1,326.13,120.94Z"/></svg>