<svg id="Layer_1" data-name="Layer 1" xmlns="http://www.w3.org/2000/svg" viewBox="0 0 403.64 133.38"><defs><style>.cls-1{fill:#05574f;}</style></defs><title>full_logo</title><path class="cls-1" d="M35.2,120.83a39.91,39.91,0,0,0-7.77-1.78,11.06,11.06,0,0,0-5.84,2.1,4.3,4.3,0,0,1-2.26,1.14,3.52,3.52,0,0,1-2.19-.57,1.84,1.84,0,0,1-.73-1.54,45.1,45.1,0,0,1,.89-5.75A48.46,48.46,0,0,0,18,104l-.65-72.09A18.89,18.89,0,0,0,16,24a6.7,6.7,0,0,0-4.94-3.81C9.77,20,9.12,19.15,9.12,17.64a2.34,2.34,0,0,1,.49-1.46,2.07,2.07,0,0,1,1.29-.81Q18,14.08,35.2,7.43a7.53,7.53,0,0,1,2.27-.65c1.19,0,1.78.65,1.78,2a43,43,0,0,1-.4,4.37,47.63,47.63,0,0,0-.41,5.83V53.6c0,3,.49,4.54,1.46,4.54a44,44,0,0,1,10.45-5.27A31.78,31.78,0,0,1,60.64,51a27.58,27.58,0,0,1,15.22,4.37A30.82,30.82,0,0,1,86.64,67.45a36.81,36.81,0,0,1,4,17.09,40.62,40.62,0,0,1-4.94,20.17A34.35,34.35,0,0,1,71.73,118.4a42.74,42.74,0,0,1-20.65,4.86A65.35,65.35,0,0,1,35.2,120.83Zm28.92-12.39q3.81-8,3.81-19.69a45.32,45.32,0,0,0-4.22-19.92q-4.22-8.74-12.15-8.75a28.1,28.1,0,0,0-7.12,1,16.23,16.23,0,0,0-6,2.76v34.5a18.74,18.74,0,0,0,4.62,13A14.18,14.18,0,0,0,54,116.46Q60.32,116.46,64.12,108.44Z"/><path class="cls-1" d="M142.07,122.77a31.25,31.25,0,0,1,.49-5.18l.32-5a3,3,0,0,0-.32-1.78,36.15,36.15,0,0,1-11.42,9.07A30.57,30.57,0,0,1,117,123.42q-7.62,0-12.72-6.56t-5.1-16.28V70.29a11.16,11.16,0,0,0-1.46-6.24,7.25,7.25,0,0,0-5-2.84,3,3,0,0,1-1.7-.89,2.93,2.93,0,0,1-.73-2.18q0-2.6,2.43-2.76a113.8,113.8,0,0,0,23.49-3.89l1.7-.4a8,8,0,0,1,1.7-.24,1.85,1.85,0,0,1,2.11,2.26,64.9,64.9,0,0,0-1.3,12.48v31.1q0,5.84,2.76,9.4a9,9,0,0,0,7.13,3.72q6.31,0,9.88-3.56a9.23,9.23,0,0,0,2.27-3.64,18.15,18.15,0,0,0,1-6.4V70.12a8.47,8.47,0,0,0-2.43-6.39,10,10,0,0,0-6.32-2.68,5.12,5.12,0,0,1-2.92-1,3.21,3.21,0,0,1-1-2.59,2.78,2.78,0,0,1,1.14-2.43,4.59,4.59,0,0,1,2.75-.81q12.31-.81,17.5-1.3a64.39,64.39,0,0,0,9.72-1.62q1.93-.48,2.1-.48c1.62,0,2.43.64,2.43,1.94a11.75,11.75,0,0,1-.65,2.43c-.21,1.3-.46,3.19-.73,5.67a56.6,56.6,0,0,0-.4,5.67v37.58q0,6.17,2.92,6.16l4.53.16a3.07,3.07,0,0,1,2.27.81,2.86,2.86,0,0,1,.81,2.11,4.23,4.23,0,0,1-.57,2.43,2.89,2.89,0,0,1-2.18,1,85.37,85.37,0,0,0-24.79,6.48c-.32.11-1,.32-1.86.65a7.36,7.36,0,0,1-2.35.48C142.5,124.39,142.07,123.85,142.07,122.77Z"/><path class="cls-1" d="M276,112.57q0,1.14-3.64,3.81a39.37,39.37,0,0,1-9.15,4.78,31.19,31.19,0,0,1-11.18,2.1q-10.53,0-16-5.34t-5.43-15.39V65.27a2.25,2.25,0,0,0-1.13-2.11,3.62,3.62,0,0,0-.76-.32h-18.5c-2.49,0-4.19.3-5.1.89a3.47,3.47,0,0,0-1.38,3.16V97.5q0,7.31,2.75,11a9,9,0,0,0,7.62,3.73,19.36,19.36,0,0,0,9.15-1.78l1.7-.81a2.47,2.47,0,0,1,1-.33,1.46,1.46,0,0,1,1.3.89,5,5,0,0,1,.49,2.35q0,1.14-3.65,3.81a39.37,39.37,0,0,1-9.15,4.78,31.19,31.19,0,0,1-11.18,2.1q-10.53,0-16-5.34t-5.42-15.39V65.27a2.24,2.24,0,0,0-1.14-2.11,9.63,9.63,0,0,0-3.89-.81h-2.1c-.65,0-1.24-.59-1.78-1.78a8.07,8.07,0,0,1-.81-3.4,1.66,1.66,0,0,1,1-1.62q8.1-2.92,23.65-16.53a9.43,9.43,0,0,1,1.13-.89,13.7,13.7,0,0,1,1.46-.89,3.3,3.3,0,0,1,1.46-.32,2.6,2.6,0,0,1,2.11.65,4.14,4.14,0,0,1,.32,2.59l-1,9.56v.64c0,1.84,1.29,2.76,3.89,2.76h20.25q7.35-4.24,18.61-14.1a9.43,9.43,0,0,1,1.13-.89,13.7,13.7,0,0,1,1.46-.89,3.3,3.3,0,0,1,1.46-.32,2.56,2.56,0,0,1,2.1.65,4.12,4.12,0,0,1,.33,2.59l-1,9.56v.64q0,2.76,3.88,2.76h19.28c.33,0,.65.38,1,1.13a5.31,5.31,0,0,1,.49,2.11,14.58,14.58,0,0,1-.65,4.45c-.43,1.35-.92,2-1.46,2H258.48c-2.49,0-4.19.3-5.1.89A3.47,3.47,0,0,0,252,66.89V97.5q0,7.31,2.75,11a9,9,0,0,0,7.62,3.73,19.36,19.36,0,0,0,9.15-1.78l1.7-.81a2.42,2.42,0,0,1,1-.33,1.47,1.47,0,0,1,1.3.89A5,5,0,0,1,276,112.57Z"/><path class="cls-1" d="M289.32,118.64a31.41,31.41,0,0,1-10.93-12.71,40.64,40.64,0,0,1-4-18.15,37.23,37.23,0,0,1,4.7-18.47A35.61,35.61,0,0,1,292,56,33.7,33.7,0,0,1,309.74,51a26.92,26.92,0,0,1,12.47,2.91,22.38,22.38,0,0,1,8.91,8.1,21,21,0,0,1,3.24,11.34c0,2.17-.41,3.73-1.22,4.7a4.68,4.68,0,0,1-3.8,1.46h-32.4a4,4,0,0,0-3.32,1.3c-.71.86-1.06,2.32-1.06,4.37a22.24,22.24,0,0,0,6,15.8,19.76,19.76,0,0,0,15.06,6.39,20.69,20.69,0,0,0,8.43-1.7,39.25,39.25,0,0,0,8.1-4.94,4.94,4.94,0,0,1,2.27-1.29c1.07,0,1.62.7,1.62,2.1a11.72,11.72,0,0,1-1.3,4.86q-2.6,6.81-10.13,11.83a31.27,31.27,0,0,1-17.74,5A27.54,27.54,0,0,1,289.32,118.64Zm17.34-45.92q3.72,0,5.83-.17a17.73,17.73,0,0,0,3.73-.64,2.6,2.6,0,0,0,1.29-1.62,8.39,8.39,0,0,0,.49-2.92,9.3,9.3,0,0,0-3-7.05,10.37,10.37,0,0,0-7.37-2.83,12.44,12.44,0,0,0-9.07,4.13q-4.05,4.13-3.89,8.83a2,2,0,0,0,2.27,2.27Z"/><path class="cls-1" d="M335.25,120.91a1.89,1.89,0,0,1-.89-1.7,2.47,2.47,0,0,1,.89-2,7.25,7.25,0,0,1,2.83-1.22,11.46,11.46,0,0,0,4.78-2.43,5.25,5.25,0,0,0,1.22-3.73V72.55A12.77,12.77,0,0,0,343,66.8,5.92,5.92,0,0,0,339.22,64a2.76,2.76,0,0,1-2.11-2.92,2.49,2.49,0,0,1,1.95-2.75A99.26,99.26,0,0,0,350.48,55a104.58,104.58,0,0,0,10.61-4.3c1.62-1.18,2.86-1.78,3.72-1.78s1.46.6,1.46,1.78l-.48,12.8c0,1,.21,1.46.64,1.46a45.8,45.8,0,0,1,9.73-10q5.5-4.14,10.85-4.13t7.86,2a6.81,6.81,0,0,1,2.51,5.59,14.42,14.42,0,0,1-3,8.18q-3,4.29-6.4,4.29-2.1,0-6.32-2.26c-.43-.22-1.32-.62-2.67-1.22a8.81,8.81,0,0,0-3.32-.89Q365.3,66.56,365.3,82v26.41a5.73,5.73,0,0,0,1.95,4.69,18,18,0,0,0,6.64,2.92q3.56,1,3.56,3.24a2,2,0,0,1-.81,1.62,3,3,0,0,1-1.94.65q-5.19,0-10.37-.49c-4.32-.21-7.35-.32-9.07-.32s-4.59.11-8.26.32a83.89,83.89,0,0,1-9.4.49A4.3,4.3,0,0,1,335.25,120.91Z"/></svg>