<?xml version="1.0" encoding="utf-8"?>
<!-- Generator: Adobe Illustrator 22.0.1, SVG Export Plug-In . SVG Version: 6.00 Build 0)  -->
<svg version="1.1" id="Layer_1" xmlns="http://www.w3.org/2000/svg" xmlns:xlink="http://www.w3.org/1999/xlink" x="0px" y="0px"
	 viewBox="0 0 399.1 399.1" style="enable-background:new 0 0 399.1 399.1;" xml:space="preserve">
<style type="text/css">
	.st0{fill:#925842;}
</style>
<title>SocialMedia</title>
<path class="st0" d="M69.2,0h256.9c0.3,0.1,0.6,0.2,1,0.2c3.2,0.5,6.5,0.7,9.8,1.4c15.8,3.3,30,11.7,40.4,24
	c11.8,13.6,18,29.5,18,47.4c0.1,82.8,0.2,165.6,0.1,248.4c0,5.4-0.6,10.8-1.9,16.1c-4.5,19-14.9,34.2-31,45.1
	c-12.2,8.3-26.6,12.7-41.3,12.6c-82.1,0-164.2,0-246.4,0c-6,0-11.9-0.6-17.7-2c-20.9-5-38.6-18.8-48.6-37.8
	c-3.9-7.4-6.5-15.4-7.6-23.7c-0.3-1.9-0.5-3.8-0.8-5.7V69.2c0.1-0.3,0.2-0.7,0.2-1c0.3-2.4,0.4-4.7,0.9-7.1
	c4.4-24.7,21-45.5,44.2-55.4c5.9-2.5,12.1-4.2,18.5-5.1C65.6,0.5,67.4,0.2,69.2,0z M319.7,76h-1.6c-10.8,0-21.6-0.1-32.4,0
	c-7.3,0-14.5,0.1-21.8,0.5c-7.2,0.4-14.3,1.9-20.9,4.5c-10.8,4.2-18.9,11.3-24,21.7c-4.5,9.3-6.2,19.3-6.5,29.6
	c-0.3,11-0.1,22-0.1,33v1.6h-24V213h22c2.3,0,2-0.2,2,1.9v134.9h61.8V212.9h36.9c1.7-15.4,3.4-30.7,5-46.1h-42v-1.3
	c0-8.7,0-17.4,0-26.1c0-2.4,0.2-4.7,0.5-7.1c0.6-3.9,2.5-6.8,6.2-8.5c3.4-1.4,7.1-2,10.8-1.9c8.8-0.1,17.6,0,26.5,0h1.5V76z"/>
</svg>
