<svg id="Layer_1" data-name="Layer 1" xmlns="http://www.w3.org/2000/svg" viewBox="0 0 402.99 402.99"><defs><style>.cls-1{fill:#05574f;}</style></defs><title>SocialMedia</title><path class="cls-1" d="M0,332.67c45.17,4.45,85.77-6.63,121.74-34.16-21.52-.94-40.1-8.67-55.61-23.54a81.75,81.75,0,0,1-21.25-34.12,81.52,81.52,0,0,0,36.61-1.35c-19.08-4.54-35-14.09-47.32-29.41s-18.23-33-18.34-52.88a84.37,84.37,0,0,0,17.94,7.37,80,80,0,0,0,19.31,2.94c-20.6-14.76-32.88-34.21-35.91-59.1a81.24,81.24,0,0,1,10.51-51.2C72.43,110,129.05,139,198.22,143.74c-.43-2.56-.85-4.79-1.18-7a82.38,82.38,0,0,1-.52-19.41,80.16,80.16,0,0,1,8.56-29.92A82.29,82.29,0,0,1,239.9,51.76,78.12,78.12,0,0,1,268,42.7c23.7-2.83,45,3.18,63.57,18.18,2.49,2,4.73,4.32,7,6.53a1.52,1.52,0,0,0,1.56.49,150.24,150.24,0,0,0,31.55-9.79c6.42-2.85,12.59-6.23,18.87-9.37l1.28-.65c-6.55,19.54-18.54,34.45-35.59,45.48A162.48,162.48,0,0,0,403,80.8c-.81,1.19-1.42,2.13-2.06,3a154,154,0,0,1-23.06,26.47c-4.91,4.42-10.18,8.45-15.3,12.64a1.73,1.73,0,0,0-.83,1.57c.07,6.19.24,12.39,0,18.58-.22,5.87-.64,11.76-1.44,17.58-1.09,7.94-2.37,15.88-4,23.72a231.34,231.34,0,0,1-13.62,42.64A247.13,247.13,0,0,1,323.19,264a237.9,237.9,0,0,1-18.86,25.54,232.67,232.67,0,0,1-21.42,22.09,224.13,224.13,0,0,1-36.53,26.82,221.09,221.09,0,0,1-37.45,17.49A224.52,224.52,0,0,1,170.6,366c-6.12,1-12.3,1.73-18.47,2.44a207.57,207.57,0,0,1-29.7,1.25c-6.66-.19-13.31-.64-20-1.25A227.4,227.4,0,0,1,36,351.65,233.18,233.18,0,0,1,.7,333.24C.5,333.11.32,332.93,0,332.67Z"/></svg>