<?xml version="1.0" encoding="utf-8"?>
<!-- Generator: Adobe Illustrator 22.0.1, SVG Export Plug-In . SVG Version: 6.00 Build 0)  -->
<svg version="1.1" id="Layer_1" xmlns="http://www.w3.org/2000/svg" xmlns:xlink="http://www.w3.org/1999/xlink" x="0px" y="0px"
	 viewBox="0 0 403 403" style="enable-background:new 0 0 403 403;" xml:space="preserve">
<style type="text/css">
	.st0{fill:#925842;}
</style>
<title>SocialMedia</title>
<path class="st0" d="M0,332.7c45.2,4.5,85.8-6.6,121.7-34.2c-21.5-0.9-40.1-8.7-55.6-23.5c-9.8-9.4-17.1-21.2-21.2-34.1
	c12.1,2.3,24.7,1.9,36.6-1.4c-19.1-4.5-35-14.1-47.3-29.4s-18.2-33-18.3-52.9c5.7,3.1,11.7,5.6,17.9,7.4c6.3,1.8,12.8,2.8,19.3,2.9
	c-20.6-14.8-32.9-34.2-35.9-59.1c-2.2-17.8,1.5-35.8,10.5-51.2C72.4,110,129.1,139,198.2,143.7c-0.4-2.6-0.9-4.8-1.2-7
	c-0.9-6.4-1.1-12.9-0.5-19.4c0.9-10.4,3.8-20.6,8.6-29.9c7.6-15.2,19.8-27.7,34.8-35.7c8.7-4.8,18.2-7.9,28.1-9.1
	c23.7-2.8,45,3.2,63.6,18.2c2.5,2,4.7,4.3,7,6.5c0.4,0.5,1,0.6,1.6,0.5c10.8-2.1,21.4-5.4,31.5-9.8c6.4-2.8,12.6-6.2,18.9-9.4
	l1.3-0.7c-6.5,19.5-18.5,34.5-35.6,45.5c16.1-1.9,31.9-6.2,46.8-12.8c-0.8,1.2-1.4,2.1-2.1,3c-6.7,9.7-14.4,18.6-23.1,26.5
	c-4.9,4.4-10.2,8.4-15.3,12.6c-0.5,0.3-0.9,0.9-0.8,1.6c0.1,6.2,0.2,12.4,0,18.6c-0.2,5.9-0.6,11.8-1.4,17.6
	c-1.1,7.9-2.4,15.9-4,23.7c-3.2,14.6-7.7,28.9-13.6,42.6c-5.4,12.9-12,25.2-19.5,37c-5.7,8.9-12,17.5-18.9,25.5
	c-6.6,7.8-13.8,15.2-21.4,22.1c-11.2,10.2-23.5,19.1-36.5,26.8c-11.9,7-24.4,12.8-37.4,17.5c-12.5,4.5-25.3,7.8-38.3,10.1
	c-6.1,1-12.3,1.7-18.5,2.4c-9.9,1.1-19.8,1.5-29.7,1.2c-6.7-0.2-13.3-0.6-20-1.2c-22.9-2.2-45.3-7.9-66.4-16.8
	c-12.3-5.1-24.1-11.3-35.3-18.4C0.5,333.1,0.3,332.9,0,332.7z"/>
</svg>
