<svg id="Layer_1" data-name="Layer 1" xmlns="http://www.w3.org/2000/svg" viewBox="0 0 399.06 399.06"><defs><style>.cls-1{fill:#05574f;}</style></defs><title>SocialMedia</title><path class="cls-1" d="M69.25,0H326.17a9.44,9.44,0,0,0,.95.25c3.25.47,6.55.72,9.76,1.42a72.64,72.64,0,0,1,40.42,24c11.75,13.6,18,29.49,18,47.43q.21,124.2.06,248.39a69.25,69.25,0,0,1-1.85,16.11c-4.53,19.05-14.87,34.16-31.05,45.15a72.17,72.17,0,0,1-41.34,12.59q-123.18,0-246.37,0a75.52,75.52,0,0,1-17.73-2A74.49,74.49,0,0,1,8.38,355.5,71.8,71.8,0,0,1,.76,331.84Q.37,329,0,326.17V69.25a8.32,8.32,0,0,0,.25-1c.28-2.36.42-4.74.85-7.07A74.37,74.37,0,0,1,45.25,5.82,69.87,69.87,0,0,1,63.71.75C65.56.51,67.4.25,69.25,0ZM319.72,76h-1.61c-10.79,0-21.58-.06-32.37,0-7.27,0-14.54.14-21.8.49A66.13,66.13,0,0,0,243,81c-10.75,4.19-18.88,11.28-24,21.72-4.54,9.33-6.23,19.33-6.48,29.56-.26,11-.08,22-.1,33v1.59h-24v46.09h22c2.27,0,2-.22,2,1.91V349.73h61.8V212.92h36.91c1.68-15.37,3.36-30.67,5.05-46.13h-42v-1.26c0-8.69,0-17.39,0-26.09a51.06,51.06,0,0,1,.53-7.1c.57-3.86,2.45-6.84,6.18-8.47A27,27,0,0,1,291.73,122c8.82-.08,17.65,0,26.47,0h1.52Z"/></svg>