<?xml version="1.0" encoding="UTF-8"?>
<svg width="301px" height="307px" viewBox="0 0 301 307" version="1.1" xmlns="http://www.w3.org/2000/svg" xmlns:xlink="http://www.w3.org/1999/xlink">
    <!-- Generator: Sketch 54.1 (76490) - https://sketchapp.com -->
    <title>Rectangle</title>
    <desc>Created with Sketch.</desc>
    <g id="Page-1" stroke="none" stroke-width="1" fill="none" fill-rule="evenodd" fill-opacity="0.75">
        <g id="Homepage-Desktop" transform="translate(-150.000000, -1651.000000)" fill="#B9C6BD">
            <path d="M211.358737,1679.05468 C251.02583,1683.4935 279.325801,1685.71291 296.258652,1685.71291 C313.997758,1685.71291 344.390078,1683.27712 387.435611,1678.40552 L387.435611,1678.40552 C402.252711,1676.72862 415.623739,1687.38086 417.300636,1702.19796 C417.447883,1703.49904 417.50029,1704.8091 417.457443,1706.11779 C416.102693,1747.49549 417.227788,1786.07846 420.832729,1821.8667 C423.760441,1850.93172 426.82679,1876.01683 430.031777,1897.12203 L430.031776,1897.12203 C432.270563,1911.8647 422.134165,1925.63089 407.391497,1927.86967 C406.210533,1928.04901 405.01897,1928.14978 403.824662,1928.17132 C362.382617,1928.9187 332.457145,1930.19493 314.048247,1932 C295.874178,1933.78205 262.577198,1938.66302 214.157309,1946.64293 L214.157309,1946.64293 C199.444097,1949.06776 185.550968,1939.10606 183.126136,1924.39285 C182.625242,1921.35356 182.648118,1918.25097 183.193774,1915.2194 C189.40756,1880.69666 191.661191,1843.23721 189.954669,1802.84107 C188.412156,1766.32728 185.654626,1735.40357 181.682079,1710.06994 L181.682079,1710.06994 C179.372017,1695.33827 189.44172,1681.52321 204.173388,1679.21315 C206.55074,1678.84036 208.96726,1678.78706 211.358737,1679.05468 Z" id="Rectangle" transform="translate(305.846888, 1812.619128) rotate(21.000000) translate(-305.846888, -1812.619128) "></path>
        </g>
    </g>
</svg>